<svg width="166" height="32" viewBox="0 0 166 32" fill="none" xmlns="http://www.w3.org/2000/svg">
<path d="M42.18 19.78H46.78V22H39.38V8.04H42.18V19.78ZM53.4797 22.18C52.413 22.18 51.453 21.9467 50.5997 21.48C49.7464 21 49.073 20.3267 48.5797 19.46C48.0997 18.5933 47.8597 17.5933 47.8597 16.46C47.8597 15.3267 48.1064 14.3267 48.5997 13.46C49.1064 12.5933 49.793 11.9267 50.6597 11.46C51.5264 10.98 52.493 10.74 53.5597 10.74C54.6264 10.74 55.593 10.98 56.4597 11.46C57.3264 11.9267 58.0064 12.5933 58.4997 13.46C59.0064 14.3267 59.2597 15.3267 59.2597 16.46C59.2597 17.5933 58.9997 18.5933 58.4797 19.46C57.973 20.3267 57.2797 21 56.3997 21.48C55.533 21.9467 54.5597 22.18 53.4797 22.18ZM53.4797 19.74C53.9864 19.74 54.4597 19.62 54.8997 19.38C55.353 19.1267 55.713 18.7533 55.9797 18.26C56.2464 17.7667 56.3797 17.1667 56.3797 16.46C56.3797 15.4067 56.0997 14.6 55.5397 14.04C54.993 13.4667 54.3197 13.18 53.5197 13.18C52.7197 13.18 52.0464 13.4667 51.4997 14.04C50.9664 14.6 50.6997 15.4067 50.6997 16.46C50.6997 17.5133 50.9597 18.3267 51.4797 18.9C52.013 19.46 52.6797 19.74 53.4797 19.74ZM71.9136 10.92L65.0536 27.24H62.0736L64.4736 21.72L60.0336 10.92H63.1736L66.0336 18.66L68.9336 10.92H71.9136ZM74.843 9.6C74.3496 9.6 73.9363 9.44667 73.603 9.14C73.283 8.82 73.123 8.42667 73.123 7.96C73.123 7.49333 73.283 7.10667 73.603 6.8C73.9363 6.48 74.3496 6.32 74.843 6.32C75.3363 6.32 75.743 6.48 76.063 6.8C76.3963 7.10667 76.563 7.49333 76.563 7.96C76.563 8.42667 76.3963 8.82 76.063 9.14C75.743 9.44667 75.3363 9.6 74.843 9.6ZM76.223 10.92V22H73.423V10.92H76.223ZM85.2294 10.76C86.0694 10.76 86.816 10.9467 87.4694 11.32C88.1227 11.68 88.6294 12.22 88.9894 12.94C89.3627 13.6467 89.5494 14.5 89.5494 15.5V22H86.7494V15.88C86.7494 15 86.5294 14.3267 86.0894 13.86C85.6494 13.38 85.0494 13.14 84.2894 13.14C83.516 13.14 82.9027 13.38 82.4494 13.86C82.0094 14.3267 81.7894 15 81.7894 15.88V22H78.9894V7.2H81.7894V12.3C82.1494 11.82 82.6294 11.4467 83.2294 11.18C83.8294 10.9 84.496 10.76 85.2294 10.76ZM91.492 16.42C91.492 15.3 91.712 14.3067 92.152 13.44C92.6054 12.5733 93.212 11.9067 93.972 11.44C94.7454 10.9733 95.6054 10.74 96.552 10.74C97.3787 10.74 98.0987 10.9067 98.712 11.24C99.3387 11.5733 99.8387 11.9933 100.212 12.5V10.92H103.032V22H100.212V20.38C99.852 20.9 99.352 21.3333 98.712 21.68C98.0854 22.0133 97.3587 22.18 96.532 22.18C95.5987 22.18 94.7454 21.94 93.972 21.46C93.212 20.98 92.6054 20.3067 92.152 19.44C91.712 18.56 91.492 17.5533 91.492 16.42ZM100.212 16.46C100.212 15.78 100.079 15.2 99.812 14.72C99.5454 14.2267 99.1854 13.8533 98.732 13.6C98.2787 13.3333 97.792 13.2 97.272 13.2C96.752 13.2 96.272 13.3267 95.832 13.58C95.392 13.8333 95.032 14.2067 94.752 14.7C94.4854 15.18 94.352 15.7533 94.352 16.42C94.352 17.0867 94.4854 17.6733 94.752 18.18C95.032 18.6733 95.392 19.0533 95.832 19.32C96.2854 19.5867 96.7654 19.72 97.272 19.72C97.792 19.72 98.2787 19.5933 98.732 19.34C99.1854 19.0733 99.5454 18.7 99.812 18.22C100.079 17.7267 100.212 17.14 100.212 16.46ZM116.672 10.76C117.992 10.76 119.059 11.18 119.872 12.02C120.686 12.8467 121.092 14.0067 121.092 15.5V22H118.292V15.88C118.292 15 118.072 14.3267 117.632 13.86C117.192 13.38 116.592 13.14 115.832 13.14C115.059 13.14 114.446 13.38 113.992 13.86C113.552 14.3267 113.332 15 113.332 15.88V22H110.532V10.92H113.332V12.3C113.706 11.82 114.179 11.4467 114.752 11.18C115.339 10.9 115.979 10.76 116.672 10.76ZM128.675 22.18C127.608 22.18 126.648 21.9467 125.795 21.48C124.942 21 124.268 20.3267 123.775 19.46C123.295 18.5933 123.055 17.5933 123.055 16.46C123.055 15.3267 123.302 14.3267 123.795 13.46C124.302 12.5933 124.988 11.9267 125.855 11.46C126.722 10.98 127.688 10.74 128.755 10.74C129.822 10.74 130.788 10.98 131.655 11.46C132.522 11.9267 133.202 12.5933 133.695 13.46C134.202 14.3267 134.455 15.3267 134.455 16.46C134.455 17.5933 134.195 18.5933 133.675 19.46C133.168 20.3267 132.475 21 131.595 21.48C130.728 21.9467 129.755 22.18 128.675 22.18ZM128.675 19.74C129.182 19.74 129.655 19.62 130.095 19.38C130.548 19.1267 130.908 18.7533 131.175 18.26C131.442 17.7667 131.575 17.1667 131.575 16.46C131.575 15.4067 131.295 14.6 130.735 14.04C130.188 13.4667 129.515 13.18 128.715 13.18C127.915 13.18 127.242 13.4667 126.695 14.04C126.162 14.6 125.895 15.4067 125.895 16.46C125.895 17.5133 126.155 18.3267 126.675 18.9C127.208 19.46 127.875 19.74 128.675 19.74ZM150.269 10.76C151.629 10.76 152.722 11.18 153.549 12.02C154.389 12.8467 154.809 14.0067 154.809 15.5V22H152.009V15.88C152.009 15.0133 151.789 14.3533 151.349 13.9C150.909 13.4333 150.309 13.2 149.549 13.2C148.789 13.2 148.182 13.4333 147.729 13.9C147.289 14.3533 147.069 15.0133 147.069 15.88V22H144.269V15.88C144.269 15.0133 144.049 14.3533 143.609 13.9C143.169 13.4333 142.569 13.2 141.809 13.2C141.036 13.2 140.422 13.4333 139.969 13.9C139.529 14.3533 139.309 15.0133 139.309 15.88V22H136.509V10.92H139.309V12.26C139.669 11.7933 140.129 11.4267 140.689 11.16C141.262 10.8933 141.889 10.76 142.569 10.76C143.436 10.76 144.209 10.9467 144.889 11.32C145.569 11.68 146.096 12.2 146.469 12.88C146.829 12.24 147.349 11.7267 148.029 11.34C148.722 10.9533 149.469 10.76 150.269 10.76ZM158.886 9.6C158.393 9.6 157.979 9.44667 157.646 9.14C157.326 8.82 157.166 8.42667 157.166 7.96C157.166 7.49333 157.326 7.10667 157.646 6.8C157.979 6.48 158.393 6.32 158.886 6.32C159.379 6.32 159.786 6.48 160.106 6.8C160.439 7.10667 160.606 7.49333 160.606 7.96C160.606 8.42667 160.439 8.82 160.106 9.14C159.786 9.44667 159.379 9.6 158.886 9.6ZM160.266 10.92V22H157.466V10.92H160.266Z" fill="#44444F"/>
<rect x="2" y="3" width="24" height="24" rx="8" stroke="#0073FF" stroke-width="4"/>
<rect x="13" y="4" width="12" height="12" rx="6" stroke="#0073FF" stroke-width="4"/>
</svg>
